<svg width="16" height="13" viewBox="0 0 16 13" fill="none" xmlns="http://www.w3.org/2000/svg">
<path d="M15.8125 6.5C15.8125 6.74864 15.7137 6.9871 15.5379 7.16291C15.3621 7.33873 15.1236 7.4375 14.875 7.4375H1.125C0.87636 7.4375 0.637903 7.33873 0.462087 7.16291C0.286272 6.9871 0.1875 6.74864 0.1875 6.5C0.1875 6.25136 0.286272 6.0129 0.462087 5.83709C0.637903 5.66127 0.87636 5.5625 1.125 5.5625H14.875C15.1236 5.5625 15.3621 5.66127 15.5379 5.83709C15.7137 6.0129 15.8125 6.25136 15.8125 6.5ZM1.125 2.4375H14.875C15.1236 2.4375 15.3621 2.33873 15.5379 2.16291C15.7137 1.9871 15.8125 1.74864 15.8125 1.5C15.8125 1.25136 15.7137 1.0129 15.5379 0.837087C15.3621 0.661272 15.1236 0.5625 14.875 0.5625H1.125C0.87636 0.5625 0.637903 0.661272 0.462087 0.837087C0.286272 1.0129 0.1875 1.25136 0.1875 1.5C0.1875 1.74864 0.286272 1.9871 0.462087 2.16291C0.637903 2.33873 0.87636 2.4375 1.125 2.4375ZM14.875 10.5625H1.125C0.87636 10.5625 0.637903 10.6613 0.462087 10.8371C0.286272 11.0129 0.1875 11.2514 0.1875 11.5C0.1875 11.7486 0.286272 11.9871 0.462087 12.1629C0.637903 12.3387 0.87636 12.4375 1.125 12.4375H14.875C15.1236 12.4375 15.3621 12.3387 15.5379 12.1629C15.7137 11.9871 15.8125 11.7486 15.8125 11.5C15.8125 11.2514 15.7137 11.0129 15.5379 10.8371C15.3621 10.6613 15.1236 10.5625 14.875 10.5625Z" fill="black"/>
</svg>
